<svg width="192" height="53" viewBox="0 0 192 53" fill="none" xmlns="http://www.w3.org/2000/svg">
<path d="M61.6132 27.8997H58.8292V12.3957H61.2532L61.4212 13.4757H61.5412C61.9892 13.0437 62.5252 12.7157 63.1492 12.4917C63.7732 12.2677 64.4772 12.1557 65.2612 12.1557C66.8612 12.1557 67.9972 12.6357 68.6692 13.5957C69.3572 14.5397 69.7012 16.1077 69.7012 18.2997C69.7012 20.4757 69.2772 22.0517 68.4292 23.0277C67.5812 23.9877 66.1892 24.4677 64.2532 24.4677C63.7092 24.4677 63.2132 24.4277 62.7652 24.3477C62.3172 24.2837 61.9332 24.1877 61.6132 24.0597V27.8997ZM66.9172 18.2997C66.9172 16.9077 66.7332 15.9557 66.3652 15.4437C66.0132 14.9157 65.3172 14.6517 64.2772 14.6517C63.7812 14.6517 63.3092 14.7077 62.8612 14.8197C62.4132 14.9317 61.9972 15.0917 61.6132 15.2997V21.4917C61.9012 21.6197 62.2292 21.7157 62.5972 21.7797C62.9812 21.8437 63.4132 21.8757 63.8932 21.8757C65.1252 21.8757 65.9332 21.6357 66.3172 21.1557C66.7172 20.6597 66.9172 19.7077 66.9172 18.2997Z" fill="#1E1E1E"/>
<path d="M74.5975 24.4677C73.3815 24.4677 72.4855 24.1717 71.9095 23.5797C71.3495 22.9717 71.0695 22.0277 71.0695 20.7477C71.0695 19.4357 71.4055 18.5077 72.0775 17.9637C72.7655 17.4197 73.9415 17.1477 75.6055 17.1477C76.0695 17.1477 76.5415 17.1717 77.0215 17.2197C77.5015 17.2677 77.9175 17.3317 78.2695 17.4117V16.4037C78.2695 15.7797 78.0775 15.3237 77.6935 15.0357C77.3095 14.7477 76.7015 14.6037 75.8695 14.6037C75.1175 14.6037 74.4455 14.6277 73.8535 14.6757C73.2775 14.7237 72.7255 14.8037 72.1975 14.9157V12.5877C72.8055 12.4437 73.4615 12.3397 74.1655 12.2757C74.8855 12.1957 75.7335 12.1557 76.7095 12.1557C78.1655 12.1557 79.2535 12.4917 79.9735 13.1637C80.6935 13.8197 81.0535 14.8117 81.0535 16.1397V24.2517H78.4855L78.3655 23.1957H78.3175C77.8055 23.5797 77.2135 23.8917 76.5415 24.1317C75.8855 24.3557 75.2375 24.4677 74.5975 24.4677ZM75.9415 19.1397C75.0775 19.1397 74.4855 19.2437 74.1655 19.4517C73.8455 19.6437 73.6855 20.0197 73.6855 20.5797C73.6855 21.1237 73.8135 21.5157 74.0695 21.7557C74.3415 21.9797 74.7975 22.0917 75.4375 22.0917C75.9015 22.0917 76.3895 22.0277 76.9015 21.8997C77.4295 21.7557 77.8855 21.5797 78.2695 21.3717V19.3317C77.8855 19.2677 77.5015 19.2197 77.1175 19.1877C76.7495 19.1557 76.3575 19.1397 75.9415 19.1397Z" fill="#1E1E1E"/>
<path d="M90.9014 21.6597V24.0357C90.6294 24.1477 90.2454 24.2437 89.7494 24.3237C89.2694 24.4197 88.8294 24.4677 88.4294 24.4677C86.9094 24.4677 85.8214 24.1397 85.1654 23.4837C84.5094 22.8117 84.1814 21.6997 84.1814 20.1477V14.7237H82.5974V12.3957H84.2534L84.6374 9.56366H86.9654V12.3957H90.7574V14.7237H86.9654V20.0517C86.9654 20.7557 87.1174 21.2357 87.4214 21.4917C87.7254 21.7477 88.2694 21.8757 89.0534 21.8757C89.3254 21.8757 89.6454 21.8597 90.0134 21.8277C90.3814 21.7797 90.6774 21.7237 90.9014 21.6597Z" fill="#1E1E1E"/>
<path d="M95.2929 24.4677C94.0769 24.4677 93.1809 24.1717 92.6049 23.5797C92.0448 22.9717 91.7649 22.0277 91.7649 20.7477C91.7649 19.4357 92.1008 18.5077 92.7729 17.9637C93.4608 17.4197 94.6368 17.1477 96.3008 17.1477C96.7649 17.1477 97.2369 17.1717 97.7169 17.2197C98.1968 17.2677 98.6129 17.3317 98.9649 17.4117V16.4037C98.9649 15.7797 98.7729 15.3237 98.3889 15.0357C98.0049 14.7477 97.3969 14.6037 96.5648 14.6037C95.8129 14.6037 95.1409 14.6277 94.5489 14.6757C93.9729 14.7237 93.4208 14.8037 92.8928 14.9157V12.5877C93.5009 12.4437 94.1569 12.3397 94.8609 12.2757C95.5809 12.1957 96.4288 12.1557 97.4049 12.1557C98.8609 12.1557 99.9488 12.4917 100.669 13.1637C101.389 13.8197 101.749 14.8117 101.749 16.1397V24.2517H99.1809L99.0609 23.1957H99.0129C98.5009 23.5797 97.9089 23.8917 97.2369 24.1317C96.5809 24.3557 95.9328 24.4677 95.2929 24.4677ZM96.6368 19.1397C95.7729 19.1397 95.1809 19.2437 94.8609 19.4517C94.5409 19.6437 94.3809 20.0197 94.3809 20.5797C94.3809 21.1237 94.5089 21.5157 94.7649 21.7557C95.0368 21.9797 95.4929 22.0917 96.1329 22.0917C96.5969 22.0917 97.0849 22.0277 97.5969 21.8997C98.1249 21.7557 98.5809 21.5797 98.9649 21.3717V19.3317C98.5809 19.2677 98.1968 19.2197 97.8129 19.1877C97.4449 19.1557 97.0528 19.1397 96.6368 19.1397Z" fill="#1E1E1E"/>
<path d="M107.105 24.2517H104.321V12.3957H106.721L106.841 13.5957H106.913C107.473 13.0997 108.073 12.7397 108.713 12.5157C109.369 12.2757 110.137 12.1557 111.017 12.1557C112.329 12.1557 113.329 12.4837 114.017 13.1397C114.705 13.7957 115.049 14.7637 115.049 16.0437V24.2517H112.265V16.4037C112.265 15.8277 112.073 15.3957 111.689 15.1077C111.321 14.8037 110.769 14.6517 110.033 14.6517C109.505 14.6517 108.993 14.7237 108.497 14.8677C108.001 14.9957 107.537 15.1957 107.105 15.4677V24.2517Z" fill="#1E1E1E"/>
<path d="M120.394 24.4677C119.178 24.4677 118.282 24.1717 117.706 23.5797C117.146 22.9717 116.866 22.0277 116.866 20.7477C116.866 19.4357 117.202 18.5077 117.874 17.9637C118.562 17.4197 119.738 17.1477 121.402 17.1477C121.866 17.1477 122.338 17.1717 122.818 17.2197C123.298 17.2677 123.714 17.3317 124.066 17.4117V16.4037C124.066 15.7797 123.874 15.3237 123.49 15.0357C123.106 14.7477 122.498 14.6037 121.666 14.6037C120.914 14.6037 120.242 14.6277 119.65 14.6757C119.074 14.7237 118.522 14.8037 117.994 14.9157V12.5877C118.602 12.4437 119.258 12.3397 119.962 12.2757C120.682 12.1957 121.53 12.1557 122.506 12.1557C123.962 12.1557 125.05 12.4917 125.77 13.1637C126.49 13.8197 126.85 14.8117 126.85 16.1397V24.2517H124.282L124.162 23.1957H124.114C123.602 23.5797 123.01 23.8917 122.338 24.1317C121.682 24.3557 121.034 24.4677 120.394 24.4677ZM121.738 19.1397C120.874 19.1397 120.282 19.2437 119.962 19.4517C119.642 19.6437 119.482 20.0197 119.482 20.5797C119.482 21.1237 119.61 21.5157 119.866 21.7557C120.138 21.9797 120.594 22.0917 121.234 22.0917C121.698 22.0917 122.186 22.0277 122.698 21.8997C123.226 21.7557 123.682 21.5797 124.066 21.3717V19.3317C123.682 19.2677 123.298 19.2197 122.914 19.1877C122.546 19.1557 122.154 19.1397 121.738 19.1397Z" fill="#1E1E1E"/>
<path d="M136.698 21.6597V24.0357C136.426 24.1477 136.042 24.2437 135.546 24.3237C135.066 24.4197 134.626 24.4677 134.226 24.4677C132.706 24.4677 131.618 24.1397 130.962 23.4837C130.306 22.8117 129.978 21.6997 129.978 20.1477V14.7237H128.394V12.3957H130.05L130.434 9.56366H132.762V12.3957H136.554V14.7237H132.762V20.0517C132.762 20.7557 132.914 21.2357 133.218 21.4917C133.522 21.7477 134.066 21.8757 134.85 21.8757C135.122 21.8757 135.442 21.8597 135.81 21.8277C136.178 21.7797 136.474 21.7237 136.698 21.6597Z" fill="#1E1E1E"/>
<path d="M141.09 24.4677C139.874 24.4677 138.978 24.1717 138.402 23.5797C137.842 22.9717 137.562 22.0277 137.562 20.7477C137.562 19.4357 137.898 18.5077 138.57 17.9637C139.258 17.4197 140.434 17.1477 142.098 17.1477C142.562 17.1477 143.034 17.1717 143.514 17.2197C143.994 17.2677 144.41 17.3317 144.762 17.4117V16.4037C144.762 15.7797 144.57 15.3237 144.186 15.0357C143.802 14.7477 143.194 14.6037 142.362 14.6037C141.61 14.6037 140.938 14.6277 140.346 14.6757C139.77 14.7237 139.218 14.8037 138.69 14.9157V12.5877C139.298 12.4437 139.954 12.3397 140.658 12.2757C141.378 12.1957 142.226 12.1557 143.202 12.1557C144.658 12.1557 145.746 12.4917 146.466 13.1637C147.186 13.8197 147.546 14.8117 147.546 16.1397V24.2517H144.978L144.858 23.1957H144.81C144.298 23.5797 143.706 23.8917 143.034 24.1317C142.378 24.3557 141.73 24.4677 141.09 24.4677ZM142.434 19.1397C141.57 19.1397 140.978 19.2437 140.658 19.4517C140.338 19.6437 140.178 20.0197 140.178 20.5797C140.178 21.1237 140.306 21.5157 140.562 21.7557C140.834 21.9797 141.29 22.0917 141.93 22.0917C142.394 22.0917 142.882 22.0277 143.394 21.8997C143.922 21.7557 144.378 21.5797 144.762 21.3717V19.3317C144.378 19.2677 143.994 19.2197 143.61 19.1877C143.242 19.1557 142.85 19.1397 142.434 19.1397Z" fill="#1E1E1E"/>
<path d="M152.902 24.2517H150.118V12.3957H152.686L152.806 13.2837H152.878C153.502 12.8997 154.094 12.6197 154.654 12.4437C155.23 12.2517 155.79 12.1557 156.334 12.1557C156.99 12.1557 157.55 12.2597 158.014 12.4677C158.494 12.6597 158.878 12.9637 159.166 13.3797H159.238C159.83 12.9957 160.47 12.6997 161.158 12.4917C161.862 12.2677 162.55 12.1557 163.222 12.1557C164.374 12.1557 165.238 12.4677 165.814 13.0917C166.39 13.7157 166.678 14.6437 166.678 15.8757V24.2517H163.894V16.2357C163.894 15.6917 163.742 15.2917 163.438 15.0357C163.15 14.7797 162.686 14.6517 162.046 14.6517C161.662 14.6517 161.27 14.6997 160.87 14.7957C160.47 14.8917 160.102 15.0197 159.766 15.1797C159.782 15.2597 159.79 15.3477 159.79 15.4437C159.79 15.5397 159.79 15.6837 159.79 15.8757V24.2517H157.006V16.2357C157.006 15.6917 156.854 15.2917 156.55 15.0357C156.262 14.7797 155.798 14.6517 155.158 14.6517C154.822 14.6517 154.462 14.6997 154.078 14.7957C153.71 14.8757 153.318 15.0117 152.902 15.2037V24.2517Z" fill="#1E1E1E"/>
<path d="M172.004 27.8997H169.22V12.3957H171.644L171.812 13.4757H171.932C172.38 13.0437 172.916 12.7157 173.54 12.4917C174.164 12.2677 174.868 12.1557 175.652 12.1557C177.252 12.1557 178.388 12.6357 179.06 13.5957C179.748 14.5397 180.092 16.1077 180.092 18.2997C180.092 20.4757 179.668 22.0517 178.82 23.0277C177.972 23.9877 176.58 24.4677 174.644 24.4677C174.1 24.4677 173.604 24.4277 173.156 24.3477C172.708 24.2837 172.324 24.1877 172.004 24.0597V27.8997ZM177.308 18.2997C177.308 16.9077 177.124 15.9557 176.756 15.4437C176.404 14.9157 175.708 14.6517 174.668 14.6517C174.172 14.6517 173.7 14.7077 173.252 14.8197C172.804 14.9317 172.388 15.0917 172.004 15.2997V21.4917C172.292 21.6197 172.62 21.7157 172.988 21.7797C173.372 21.8437 173.804 21.8757 174.284 21.8757C175.516 21.8757 176.324 21.6357 176.708 21.1557C177.108 20.6597 177.308 19.7077 177.308 18.2997Z" fill="#1E1E1E"/>
<path d="M184.988 24.4677C183.772 24.4677 182.876 24.1717 182.3 23.5797C181.74 22.9717 181.46 22.0277 181.46 20.7477C181.46 19.4357 181.796 18.5077 182.468 17.9637C183.156 17.4197 184.332 17.1477 185.996 17.1477C186.46 17.1477 186.932 17.1717 187.412 17.2197C187.892 17.2677 188.308 17.3317 188.66 17.4117V16.4037C188.66 15.7797 188.468 15.3237 188.084 15.0357C187.7 14.7477 187.092 14.6037 186.26 14.6037C185.508 14.6037 184.836 14.6277 184.244 14.6757C183.668 14.7237 183.116 14.8037 182.588 14.9157V12.5877C183.196 12.4437 183.852 12.3397 184.556 12.2757C185.276 12.1957 186.124 12.1557 187.1 12.1557C188.556 12.1557 189.644 12.4917 190.364 13.1637C191.084 13.8197 191.444 14.8117 191.444 16.1397V24.2517H188.876L188.756 23.1957H188.708C188.196 23.5797 187.604 23.8917 186.932 24.1317C186.276 24.3557 185.628 24.4677 184.988 24.4677ZM186.332 19.1397C185.468 19.1397 184.876 19.2437 184.556 19.4517C184.236 19.6437 184.076 20.0197 184.076 20.5797C184.076 21.1237 184.204 21.5157 184.46 21.7557C184.732 21.9797 185.188 22.0917 185.828 22.0917C186.292 22.0917 186.78 22.0277 187.292 21.8997C187.82 21.7557 188.276 21.5797 188.66 21.3717V19.3317C188.276 19.2677 187.892 19.2197 187.508 19.1877C187.14 19.1557 186.748 19.1397 186.332 19.1397Z" fill="#1E1E1E"/>
<path d="M59.9993 43.8095H58.8292V34.591H59.8423L59.9137 35.2189H59.9565C60.2514 34.9715 60.6034 34.7812 61.0125 34.6481C61.4216 34.5149 61.8592 34.4483 62.3254 34.4483C63.2862 34.4483 63.9712 34.7337 64.3803 35.3045C64.7989 35.8753 65.0082 36.8076 65.0082 38.1014C65.0082 39.3953 64.756 40.3276 64.2518 40.8984C63.7476 41.4692 62.9057 41.7546 61.726 41.7546C61.374 41.7546 61.0506 41.7308 60.7556 41.6833C60.4702 41.6357 60.2181 41.5643 59.9993 41.4692V43.8095ZM63.838 38.1014C63.838 37.1311 63.7001 36.4556 63.4242 36.0751C63.1578 35.6945 62.6536 35.5043 61.9115 35.5043C61.5595 35.5043 61.2218 35.5566 60.8983 35.6612C60.5844 35.7564 60.2847 35.8991 59.9993 36.0893V40.3847C60.2372 40.4798 60.4797 40.5512 60.7271 40.5987C60.984 40.6463 61.2694 40.6701 61.5833 40.6701C62.4681 40.6701 63.0627 40.4893 63.3671 40.1278C63.681 39.7568 63.838 39.0813 63.838 38.1014Z" fill="black"/>
<path d="M67.7197 41.6405H66.5496V34.591H67.6198L67.6769 35.1903H67.734C68.105 34.9715 68.476 34.8098 68.8471 34.7051C69.2181 34.591 69.5844 34.5339 69.9459 34.5339C70.0981 34.5339 70.198 34.5339 70.2455 34.5339C70.3026 34.5339 70.3454 34.5387 70.374 34.5482V35.6755C70.3074 35.6565 70.2218 35.647 70.1171 35.647C70.022 35.6375 69.8698 35.6327 69.6605 35.6327C69.318 35.6327 68.9802 35.6755 68.6473 35.7611C68.3238 35.8372 68.0146 35.9562 67.7197 36.1179V41.6405Z" fill="black"/>
<path d="M77.5925 38.1014C77.5925 39.4333 77.3451 40.3752 76.8504 40.9269C76.3652 41.4787 75.528 41.7546 74.3389 41.7546C73.1116 41.7546 72.2602 41.4882 71.7845 40.9555C71.3088 40.4227 71.071 39.4714 71.071 38.1014C71.071 36.76 71.3136 35.8182 71.7988 35.2759C72.2935 34.7242 73.1402 34.4483 74.3389 34.4483C75.5661 34.4483 76.4128 34.7147 76.879 35.2474C77.3546 35.7802 77.5925 36.7315 77.5925 38.1014ZM72.2411 38.0872C72.2411 39.1337 72.3791 39.8281 72.655 40.1706C72.9309 40.5036 73.4922 40.6701 74.3389 40.6701C75.157 40.6701 75.7088 40.4941 75.9942 40.1421C76.2796 39.7806 76.4223 39.0956 76.4223 38.0872C76.4223 37.0407 76.2844 36.351 76.0085 36.018C75.7421 35.6755 75.1856 35.5043 74.3389 35.5043C73.5112 35.5043 72.9546 35.6803 72.6692 36.0323C72.3838 36.3843 72.2411 37.0692 72.2411 38.0872Z" fill="black"/>
<path d="M80.4889 33.3637H79.2331V32.1508H80.4889V33.3637ZM78.2056 43.9522C78.0249 43.9522 77.8631 43.9475 77.7204 43.938C77.5682 43.9284 77.3875 43.9047 77.1782 43.8666V42.8391C77.378 42.8677 77.5254 42.882 77.6206 42.882C77.7062 42.8915 77.787 42.8962 77.8631 42.8962C78.3769 42.8962 78.7384 42.7868 78.9477 42.568C79.1665 42.3492 79.2759 41.9734 79.2759 41.4407V34.591H80.4461V41.5691C80.4461 42.3587 80.2558 42.9533 79.8752 43.3529C79.5042 43.7524 78.9477 43.9522 78.2056 43.9522Z" fill="black"/>
<path d="M87.6191 40.2705V41.2552C87.3717 41.3883 87.0054 41.5073 86.5203 41.6119C86.0446 41.707 85.5594 41.7546 85.0647 41.7546C83.9611 41.7546 83.1715 41.4692 82.6958 40.8984C82.2202 40.3276 81.9823 39.3858 81.9823 38.0729C81.9823 36.8076 82.2297 35.8896 82.7244 35.3188C83.2191 34.7384 84.0087 34.4483 85.0932 34.4483C86.1017 34.4483 86.8247 34.6766 87.2623 35.1332C87.6999 35.5804 87.9187 36.3319 87.9187 37.3879C87.9187 37.5782 87.914 37.7542 87.9045 37.9159C87.8949 38.0777 87.8759 38.2727 87.8474 38.501H83.1668C83.1763 39.2811 83.3332 39.8376 83.6377 40.1706C83.9516 40.5036 84.4891 40.6701 85.2502 40.6701C85.6593 40.6701 86.0874 40.632 86.5345 40.5559C86.9817 40.4798 87.3432 40.3847 87.6191 40.2705ZM86.8485 37.231C86.839 36.6031 86.701 36.1607 86.4346 35.9038C86.1683 35.6375 85.7211 35.5043 85.0932 35.5043C84.3892 35.5043 83.8898 35.6565 83.5949 35.9609C83.3095 36.2558 83.1668 36.7791 83.1668 37.5306H86.8342C86.8342 37.5116 86.8342 37.4688 86.8342 37.4022C86.8437 37.3261 86.8485 37.269 86.8485 37.231Z" fill="black"/>
<path d="M93.5007 40.5416V41.5263C93.3485 41.5929 93.1392 41.6452 92.8728 41.6833C92.616 41.7308 92.3686 41.7546 92.1308 41.7546C91.2746 41.7546 90.6609 41.5643 90.2899 41.1838C89.9284 40.8033 89.7477 40.1468 89.7477 39.2145V35.5899H88.6917V34.591H89.7619L89.9474 32.8786H90.9178V34.591H93.4294V35.5899H90.9178V39.1717C90.9178 39.752 91.0225 40.1468 91.2318 40.3561C91.4506 40.5654 91.8311 40.6701 92.3734 40.6701C92.5446 40.6701 92.7396 40.6558 92.9585 40.6273C93.1868 40.5987 93.3675 40.5702 93.5007 40.5416Z" fill="black"/>
<path d="M100.768 38.1014C100.768 39.4333 100.52 40.3752 100.026 40.9269C99.5404 41.4787 98.7032 41.7546 97.514 41.7546C96.2867 41.7546 95.4353 41.4882 94.9596 40.9555C94.4839 40.4227 94.2461 39.4714 94.2461 38.1014C94.2461 36.76 94.4887 35.8182 94.9739 35.2759C95.4686 34.7242 96.3153 34.4483 97.514 34.4483C98.7412 34.4483 99.5879 34.7147 100.054 35.2474C100.53 35.7802 100.768 36.7315 100.768 38.1014ZM95.4163 38.0872C95.4163 39.1337 95.5542 39.8281 95.8301 40.1706C96.106 40.5036 96.6673 40.6701 97.514 40.6701C98.3321 40.6701 98.8839 40.4941 99.1693 40.1421C99.4547 39.7806 99.5974 39.0956 99.5974 38.0872C99.5974 37.0407 99.4595 36.351 99.1836 36.018C98.9172 35.6755 98.3607 35.5043 97.514 35.5043C96.6863 35.5043 96.1298 35.6803 95.8444 36.0323C95.559 36.3843 95.4163 37.0692 95.4163 38.0872Z" fill="black"/>
<path d="M107.187 35.5043C106.578 35.5043 106.155 35.5756 105.917 35.7183C105.689 35.861 105.575 36.1512 105.575 36.5888C105.575 36.8171 105.627 36.9931 105.732 37.1168C105.846 37.231 106.022 37.3071 106.26 37.3451L108.072 37.6163C108.643 37.7019 109.042 37.8826 109.271 38.1585C109.499 38.4249 109.613 38.8482 109.613 39.4286C109.613 40.2467 109.418 40.8413 109.028 41.2123C108.638 41.5739 107.991 41.7546 107.087 41.7546C106.545 41.7546 106.041 41.7261 105.575 41.669C105.109 41.6119 104.723 41.5358 104.419 41.4407V40.3419C104.723 40.437 105.094 40.5179 105.532 40.5845C105.979 40.6415 106.436 40.6701 106.902 40.6701C107.492 40.6701 107.896 40.5845 108.115 40.4132C108.334 40.242 108.443 39.9375 108.443 39.4999C108.443 39.224 108.381 39.0242 108.258 38.9006C108.134 38.7674 107.91 38.677 107.587 38.6294L105.775 38.3583C105.318 38.2917 104.975 38.1157 104.747 37.8303C104.528 37.5449 104.414 37.1311 104.405 36.5888C104.405 35.8468 104.623 35.3045 105.061 34.962C105.508 34.6195 106.193 34.4483 107.116 34.4483C107.496 34.4483 107.839 34.4578 108.143 34.4768C108.457 34.4958 108.786 34.5339 109.128 34.591V35.6327C108.881 35.5946 108.591 35.5661 108.258 35.5471C107.925 35.5185 107.568 35.5043 107.187 35.5043Z" fill="black"/>
<path d="M117.226 38.1014C117.226 39.4333 116.978 40.3752 116.484 40.9269C115.998 41.4787 115.161 41.7546 113.972 41.7546C112.745 41.7546 111.893 41.4882 111.418 40.9555C110.942 40.4227 110.704 39.4714 110.704 38.1014C110.704 36.76 110.947 35.8182 111.432 35.2759C111.927 34.7242 112.773 34.4483 113.972 34.4483C115.199 34.4483 116.046 34.7147 116.512 35.2474C116.988 35.7802 117.226 36.7315 117.226 38.1014ZM111.874 38.0872C111.874 39.1337 112.012 39.8281 112.288 40.1706C112.564 40.5036 113.125 40.6701 113.972 40.6701C114.79 40.6701 115.342 40.4941 115.627 40.1421C115.913 39.7806 116.056 39.0956 116.056 38.0872C116.056 37.0407 115.918 36.351 115.642 36.018C115.375 35.6755 114.819 35.5043 113.972 35.5043C113.144 35.5043 112.588 35.6803 112.302 36.0323C112.017 36.3843 111.874 37.0692 111.874 38.0872Z" fill="black"/>
<path d="M123.704 40.242V41.2266C123.466 41.3788 123.109 41.5073 122.634 41.6119C122.167 41.707 121.678 41.7546 121.164 41.7546C120.165 41.7546 119.461 41.4835 119.052 40.9412C118.652 40.3989 118.452 39.4524 118.452 38.1014C118.452 36.7791 118.714 35.842 119.237 35.2902C119.761 34.7289 120.65 34.4483 121.906 34.4483C122.182 34.4483 122.429 34.4578 122.648 34.4768C122.876 34.4863 123.166 34.5149 123.518 34.5624V35.6042C123.166 35.5566 122.876 35.5281 122.648 35.5185C122.429 35.509 122.182 35.5043 121.906 35.5043C121.012 35.5043 120.407 35.6898 120.094 36.0608C119.78 36.4223 119.623 37.1025 119.623 38.1014C119.623 39.1004 119.746 39.7806 119.994 40.1421C120.241 40.4941 120.717 40.6701 121.421 40.6701C121.811 40.6701 122.215 40.632 122.634 40.5559C123.052 40.4703 123.409 40.3656 123.704 40.242Z" fill="black"/>
<path d="M126.265 33.3637H125.009V32.1508H126.265V33.3637ZM126.222 41.6405H125.052V34.591H126.222V41.6405Z" fill="black"/>
<path d="M129.702 41.7546C128.979 41.7546 128.446 41.5834 128.104 41.2409C127.771 40.8889 127.604 40.3371 127.604 39.5855C127.604 38.8245 127.809 38.287 128.218 37.973C128.627 37.6496 129.321 37.4878 130.301 37.4878C130.625 37.4878 130.943 37.5021 131.257 37.5306C131.571 37.5592 131.866 37.602 132.142 37.6591V36.9741C132.142 36.4509 132.009 36.0751 131.743 35.8468C131.476 35.6184 131.048 35.5043 130.458 35.5043C130.021 35.5043 129.635 35.5233 129.302 35.5613C128.969 35.5899 128.636 35.6422 128.303 35.7183V34.7051C128.684 34.61 129.069 34.5434 129.459 34.5054C129.859 34.4673 130.311 34.4483 130.815 34.4483C131.662 34.4483 132.29 34.6481 132.699 35.0476C133.108 35.4377 133.312 36.0465 133.312 36.8742V41.6405H132.242L132.185 40.984H132.156C131.871 41.2123 131.5 41.3979 131.043 41.5406C130.596 41.6833 130.149 41.7546 129.702 41.7546ZM130.43 38.4439C129.783 38.4439 129.331 38.5248 129.074 38.6865C128.827 38.8387 128.703 39.1146 128.703 39.5142C128.703 39.9328 128.808 40.2372 129.017 40.4275C129.226 40.6082 129.569 40.6986 130.044 40.6986C130.415 40.6986 130.796 40.6415 131.186 40.5274C131.576 40.4132 131.895 40.2705 132.142 40.0993V38.5866C131.828 38.5391 131.533 38.5058 131.257 38.4867C130.991 38.4582 130.715 38.4439 130.43 38.4439Z" fill="black"/>
<path d="M136.311 32.1508V41.6405H135.141V32.1508H136.311Z" fill="black"/>
<path d="M52.3101 28.4615C52.3458 27.9055 51.6133 27.3214 51.6133 26.7579C51.6133 26.1944 52.3458 25.6083 52.3101 25.0542C52.2745 24.4907 51.4724 24.0061 51.3992 23.4539C51.3259 22.8942 51.9758 22.2199 51.8687 21.6733C51.7598 21.1211 50.9014 20.7454 50.7568 20.2063C50.6121 19.6635 51.1681 18.9084 50.9878 18.3806C50.8075 17.849 49.9059 17.588 49.6918 17.0714C49.4758 16.553 49.9284 15.7322 49.6805 15.2307C49.4326 14.7273 48.5047 14.5883 48.2248 14.1037C47.9431 13.6172 48.2849 12.7457 47.9731 12.2798C47.6613 11.814 46.724 11.7952 46.3822 11.352C46.0403 10.9068 46.2639 9.9977 45.8957 9.57695C45.5257 9.15621 44.594 9.25952 44.1977 8.8632C43.8014 8.46687 43.9066 7.53523 43.484 7.1652C43.0632 6.79518 42.1522 7.02057 41.709 6.67872C41.2657 6.33687 41.2469 5.40147 40.7811 5.08779C40.3152 4.77599 39.4437 5.11784 38.9572 4.8361C38.4726 4.55623 38.3336 3.62834 37.8302 3.3804C37.3287 3.13247 36.5079 3.58514 35.9895 3.36914C35.473 3.15501 35.2137 2.2553 34.6803 2.07498C34.1525 1.89466 33.3974 2.45064 32.8546 2.30601C32.3155 2.16138 31.9399 1.30299 31.3876 1.19405C30.841 1.08511 30.1667 1.73688 29.607 1.66363C29.0548 1.59225 28.5702 0.790214 28.0067 0.752647C27.4507 0.71696 26.8665 1.4495 26.303 1.4495C25.7395 1.4495 25.1554 0.71696 24.5994 0.750769C24.0359 0.786457 23.5513 1.5885 22.9991 1.66175C22.4394 1.735 21.765 1.08511 21.2185 1.19217C20.6662 1.30111 20.2906 2.1595 19.7515 2.30413C19.2087 2.44876 18.4536 1.89278 17.9258 2.0731C17.3942 2.25342 17.1331 3.15501 16.6166 3.36914C16.0982 3.58514 15.2774 3.13247 14.7758 3.3804C14.2725 3.62834 14.1335 4.55623 13.6489 4.8361C13.1624 5.11784 12.2908 4.77599 11.825 5.08779C11.3592 5.39959 11.3404 6.33687 10.8971 6.67872C10.452 7.02057 9.54287 6.79705 9.12213 7.1652C8.70138 7.53523 8.80469 8.46687 8.40837 8.8632C8.01204 9.25952 7.0804 9.15434 6.71037 9.57695C6.34035 9.9977 6.56574 10.9087 6.22389 11.352C5.88204 11.7952 4.94664 11.814 4.63296 12.2798C4.32116 12.7457 4.66301 13.6172 4.38127 14.1037C4.1014 14.5883 3.17351 14.7273 2.92558 15.2307C2.67764 15.7322 3.13031 16.553 2.91431 17.0714C2.70018 17.588 1.80047 17.8472 1.61827 18.3806C1.43795 18.9084 1.99393 19.6635 1.8493 20.2063C1.70467 20.7454 0.846286 21.1211 0.737344 21.6733C0.628402 22.2199 1.28018 22.8942 1.20692 23.4539C1.13555 24.0061 0.333507 24.4907 0.295941 25.0542C0.260253 25.6102 0.992794 26.1944 0.992794 26.7579C0.992794 27.3214 0.264009 27.9074 0.297819 28.4615C0.333507 29.025 1.13555 29.5096 1.2088 30.0618C1.28205 30.6216 0.632158 31.2959 0.739222 31.8425C0.848164 32.3947 1.70655 32.7703 1.85118 33.3094C1.99581 33.8522 1.43983 34.6073 1.62015 35.1351C1.80047 35.6667 2.70206 35.9278 2.91618 36.4443C3.13219 36.9627 2.67952 37.7836 2.92745 38.2851C3.17539 38.7885 4.10328 38.9274 4.38315 39.4121C4.66489 39.8985 4.32304 40.7701 4.63484 41.2359C4.94664 41.7017 5.88392 41.7205 6.22577 42.1638C6.56762 42.6089 6.3441 43.518 6.71225 43.9388C7.08228 44.3595 8.01392 44.2562 8.41024 44.6525C8.80657 45.0489 8.70138 45.9805 9.124 46.3505C9.54475 46.7206 10.4557 46.4952 10.899 46.837C11.3423 47.1789 11.3611 48.1143 11.8269 48.4279C12.2927 48.7397 13.1643 48.3979 13.6507 48.6796C14.1353 48.9595 14.2743 49.8874 14.7777 50.1353C15.2792 50.3833 16.1001 49.9306 16.6185 50.1466C17.135 50.3607 17.3942 51.2604 17.9276 51.4426C18.4555 51.623 19.2105 51.067 19.7534 51.2116C20.2924 51.3562 20.6681 52.2146 21.2203 52.3236C21.7669 52.4325 22.4412 51.7807 23.001 51.854C23.5532 51.9254 24.0378 52.7274 24.6013 52.765C25.1573 52.8007 25.7414 52.0681 26.3049 52.0681C26.8684 52.0681 27.4544 52.8007 28.0085 52.765C28.572 52.7293 29.0566 51.9272 29.6089 51.854C30.1686 51.7807 30.8429 52.4306 31.3895 52.3236C31.9417 52.2146 32.3174 51.3562 32.8565 51.2116C33.3993 51.067 34.1544 51.623 34.6822 51.4426C35.2137 51.2623 35.4748 50.3607 35.9914 50.1466C36.5098 49.9306 37.3306 50.3833 37.8321 50.1353C38.3355 49.8874 38.4745 48.9595 38.9591 48.6796C39.4456 48.3979 40.3171 48.7397 40.7829 48.4279C41.2488 48.1161 41.2675 47.1789 41.7108 46.837C42.156 46.4952 43.0651 46.7187 43.4858 46.3505C43.9066 45.9805 43.8033 45.0489 44.1996 44.6525C44.5959 44.2562 45.5276 44.3614 45.8976 43.9388C46.2676 43.518 46.0422 42.6071 46.3841 42.1638C46.7259 41.7205 47.6613 41.7017 47.975 41.2359C48.2868 40.7701 47.9449 39.8985 48.2267 39.4121C48.5066 38.9274 49.4344 38.7885 49.6824 38.2851C49.9303 37.7836 49.4776 36.9627 49.6937 36.4443C49.9078 35.9278 50.8075 35.6686 50.9878 35.1351C51.1681 34.6073 50.6121 33.8522 50.7568 33.3094C50.9014 32.7703 51.7598 32.3947 51.8687 31.8425C51.9777 31.2959 51.3259 30.6216 51.3992 30.0618C51.4705 29.5096 52.2726 29.025 52.3101 28.4615Z" fill="#D64B4B"/>
<path d="M33.2298 32.3921C30.2969 29.6109 29.5527 26.562 26.2977 26.4676C23.0419 26.5452 22.2816 29.5899 19.334 32.3558C15.0098 36.4138 15.8253 39.9428 18.4682 40.6814C21.1111 41.4201 23.3697 38.4438 26.239 38.5074C26.2481 38.5074 26.2564 38.5074 26.2655 38.5074C26.2746 38.5074 26.283 38.5074 26.2921 38.5074C29.1621 38.4585 31.4053 41.4466 34.0516 40.7226C36.698 39.998 37.5317 36.4732 33.2291 32.3921H33.2298Z" fill="white"/>
<path d="M18.8002 30.6186C20.399 29.4621 20.2411 26.5138 18.4466 24.0337C16.6527 21.5536 13.9022 20.4803 12.3026 21.6368C10.7038 22.7933 10.8617 25.7416 12.6562 28.2217C14.4501 30.7017 17.2006 31.7751 18.8002 30.6186Z" fill="white"/>
<path d="M40.3165 21.7102C38.7239 20.5452 35.9671 21.6039 34.1606 24.0742C32.3535 26.5452 32.1802 29.4921 33.7728 30.6577C35.3654 31.8226 38.1222 30.7639 39.9286 28.2936C41.7357 25.8227 41.9097 22.8758 40.3165 21.7102Z" fill="white"/>
<path d="M22.775 24.2322C24.8246 23.873 26.0342 21.0037 25.4773 17.8241C24.9189 14.6438 22.805 12.358 20.7554 12.7172C18.7058 13.0764 17.4962 15.9457 18.0538 19.1253C18.6115 22.3048 20.7254 24.5914 22.775 24.2315V24.2322Z" fill="white"/>
<path d="M29.8315 24.2503C31.8797 24.6207 34.0055 22.3454 34.5799 19.1686C35.1543 15.9918 33.9594 13.1162 31.9119 12.7466C29.8637 12.3762 27.7379 14.6515 27.1635 17.8283C26.589 21.0051 27.784 23.8807 29.8315 24.2503Z" fill="white"/>
</svg>
