<svg width="37" height="38" viewBox="0 0 37 38" fill="none" xmlns="http://www.w3.org/2000/svg">
<circle cx="18.5" cy="19.2988" r="18.5" fill="#D64B4B"/>
<path d="M24.5 18.8369C25.0522 18.8369 25.4998 19.2848 25.5 19.8369C25.5 23.3633 22.8921 26.2783 19.5 26.7637V28.8369C19.5 29.3892 19.0523 29.8369 18.5 29.8369C17.9477 29.8369 17.5 29.3892 17.5 28.8369V26.7637C14.1079 26.2783 11.5 23.3633 11.5 19.8369C11.5002 19.2848 11.9478 18.8369 12.5 18.8369C13.0522 18.8369 13.4998 19.2848 13.5 19.8369C13.5 22.5983 15.7386 24.8369 18.5 24.8369C21.2614 24.8369 23.5 22.5983 23.5 19.8369C23.5002 19.2848 23.9478 18.8369 24.5 18.8369ZM18.5 10.8369C20.1568 10.8369 21.4998 12.1802 21.5 13.8369V19.8369C21.5 21.4938 20.1569 22.8369 18.5 22.8369C16.8431 22.8369 15.5 21.4938 15.5 19.8369V13.8369C15.5002 12.1802 16.8432 10.8369 18.5 10.8369ZM18.5 12.8369C17.9478 12.8369 17.5002 13.2848 17.5 13.8369V19.8369C17.5 20.3892 17.9477 20.8369 18.5 20.8369C19.0523 20.8369 19.5 20.3892 19.5 19.8369V13.8369C19.4998 13.2848 19.0522 12.8369 18.5 12.8369Z" fill="#F7F7F7"/>
</svg>
