<svg width="25" height="25" viewBox="0 0 25 25" fill="none" xmlns="http://www.w3.org/2000/svg">
<path d="M18.9995 6.19598H19.0133M7.03794 23.8963H18.1006C21.1555 23.8963 23.632 21.4198 23.632 18.365V7.30225C23.632 4.24737 21.1555 1.7709 18.1006 1.7709H7.03794C3.98306 1.7709 1.50659 4.24737 1.50659 7.30225V18.365C1.50659 21.4198 3.98306 23.8963 7.03794 23.8963ZM17.7549 12.8336C17.7549 15.6976 15.4332 18.0192 12.5693 18.0192C9.70534 18.0192 7.38365 15.6976 7.38365 12.8336C7.38365 9.96965 9.70534 7.64796 12.5693 7.64796C15.4332 7.64796 17.7549 9.96965 17.7549 12.8336Z" stroke="white" stroke-width="2" stroke-linecap="round" stroke-linejoin="round"/>
</svg>
