<svg width="55" height="54" viewBox="0 0 55 54" fill="none" xmlns="http://www.w3.org/2000/svg">
<circle cx="27.5693" cy="26.8336" r="26.7167" fill="#D64B4B"/>
<path d="M33.1006 14.7705C36.7075 14.7706 39.6316 17.6949 39.6318 21.3018V32.3643C39.6318 35.9713 36.7076 38.8954 33.1006 38.8955H22.0381C18.431 38.8955 15.5068 35.9714 15.5068 32.3643V21.3018C15.5071 17.6949 18.4311 14.7706 22.0381 14.7705H33.1006ZM22.0381 16.7705C19.5357 16.7706 17.5071 18.7994 17.5068 21.3018V32.3643C17.5068 34.8668 19.5355 36.8955 22.0381 36.8955H33.1006C35.6031 36.8954 37.6318 34.8668 37.6318 32.3643V21.3018C37.6316 18.7995 35.6029 16.7706 33.1006 16.7705H22.0381ZM27.5693 20.6475C30.9853 20.6476 33.7546 23.4171 33.7549 26.833C33.7549 30.2492 30.9855 33.0184 27.5693 33.0186C24.1532 33.0184 21.3838 30.2492 21.3838 26.833C21.3841 23.4171 24.1534 20.6476 27.5693 20.6475ZM27.5693 22.6475C25.258 22.6476 23.3841 24.5217 23.3838 26.833C23.3838 29.1446 25.2578 31.0184 27.5693 31.0186C29.8809 31.0184 31.7549 29.1446 31.7549 26.833C31.7546 24.5217 29.8807 22.6476 27.5693 22.6475ZM34.0137 19.1953C34.5656 19.1955 35.0133 19.6435 35.0137 20.1953C35.0137 20.7475 34.5658 21.1951 34.0137 21.1953H34C33.4477 21.1953 33 20.7476 33 20.1953C33.0004 19.6433 33.4479 19.1953 34 19.1953H34.0137Z" fill="white"/>
</svg>
