<svg width="53" height="53" viewBox="0 0 53 53" fill="none" xmlns="http://www.w3.org/2000/svg">
<path d="M52.3101 28.4615C52.3458 27.9055 51.6133 27.3214 51.6133 26.7579C51.6133 26.1944 52.3458 25.6083 52.3101 25.0542C52.2745 24.4907 51.4724 24.0061 51.3992 23.4539C51.3259 22.8942 51.9758 22.2199 51.8687 21.6733C51.7598 21.1211 50.9014 20.7454 50.7568 20.2063C50.6121 19.6635 51.1681 18.9084 50.9878 18.3806C50.8075 17.849 49.9059 17.588 49.6918 17.0714C49.4758 16.553 49.9284 15.7322 49.6805 15.2307C49.4326 14.7273 48.5047 14.5883 48.2248 14.1037C47.9431 13.6172 48.2849 12.7457 47.9731 12.2798C47.6613 11.814 46.724 11.7952 46.3822 11.352C46.0403 10.9068 46.2639 9.9977 45.8957 9.57695C45.5257 9.15621 44.594 9.25952 44.1977 8.8632C43.8014 8.46687 43.9066 7.53523 43.484 7.1652C43.0632 6.79518 42.1522 7.02057 41.709 6.67872C41.2657 6.33687 41.2469 5.40147 40.7811 5.08779C40.3152 4.77599 39.4437 5.11784 38.9572 4.8361C38.4726 4.55623 38.3336 3.62834 37.8302 3.3804C37.3287 3.13247 36.5079 3.58514 35.9895 3.36914C35.473 3.15501 35.2137 2.2553 34.6803 2.07498C34.1525 1.89466 33.3974 2.45064 32.8546 2.30601C32.3155 2.16138 31.9399 1.30299 31.3876 1.19405C30.841 1.08511 30.1667 1.73688 29.607 1.66363C29.0548 1.59225 28.5702 0.790214 28.0067 0.752647C27.4507 0.71696 26.8665 1.4495 26.303 1.4495C25.7395 1.4495 25.1554 0.71696 24.5994 0.750769C24.0359 0.786457 23.5513 1.5885 22.9991 1.66175C22.4394 1.735 21.765 1.08511 21.2185 1.19217C20.6662 1.30111 20.2906 2.1595 19.7515 2.30413C19.2087 2.44876 18.4536 1.89278 17.9258 2.0731C17.3942 2.25342 17.1331 3.15501 16.6166 3.36914C16.0982 3.58514 15.2774 3.13247 14.7758 3.3804C14.2725 3.62834 14.1335 4.55623 13.6489 4.8361C13.1624 5.11784 12.2908 4.77599 11.825 5.08779C11.3592 5.39959 11.3404 6.33687 10.8971 6.67872C10.452 7.02057 9.54287 6.79705 9.12213 7.1652C8.70138 7.53523 8.80469 8.46687 8.40837 8.8632C8.01204 9.25952 7.0804 9.15434 6.71037 9.57695C6.34035 9.9977 6.56574 10.9087 6.22389 11.352C5.88204 11.7952 4.94664 11.814 4.63296 12.2798C4.32116 12.7457 4.66301 13.6172 4.38127 14.1037C4.1014 14.5883 3.17351 14.7273 2.92558 15.2307C2.67764 15.7322 3.13031 16.553 2.91431 17.0714C2.70018 17.588 1.80047 17.8472 1.61827 18.3806C1.43795 18.9084 1.99393 19.6635 1.8493 20.2063C1.70467 20.7454 0.846286 21.1211 0.737344 21.6733C0.628402 22.2199 1.28018 22.8942 1.20692 23.4539C1.13555 24.0061 0.333507 24.4907 0.295941 25.0542C0.260253 25.6102 0.992794 26.1944 0.992794 26.7579C0.992794 27.3214 0.264009 27.9074 0.297819 28.4615C0.333507 29.025 1.13555 29.5096 1.2088 30.0618C1.28205 30.6216 0.632158 31.2959 0.739222 31.8425C0.848164 32.3947 1.70655 32.7703 1.85118 33.3094C1.99581 33.8522 1.43983 34.6073 1.62015 35.1351C1.80047 35.6667 2.70206 35.9278 2.91618 36.4443C3.13219 36.9627 2.67952 37.7836 2.92745 38.2851C3.17539 38.7885 4.10328 38.9274 4.38315 39.4121C4.66489 39.8985 4.32304 40.7701 4.63484 41.2359C4.94664 41.7017 5.88392 41.7205 6.22577 42.1638C6.56762 42.6089 6.3441 43.518 6.71225 43.9388C7.08228 44.3595 8.01392 44.2562 8.41024 44.6525C8.80657 45.0489 8.70138 45.9805 9.124 46.3505C9.54475 46.7206 10.4557 46.4952 10.899 46.837C11.3423 47.1789 11.3611 48.1143 11.8269 48.4279C12.2927 48.7397 13.1643 48.3979 13.6507 48.6796C14.1353 48.9595 14.2743 49.8874 14.7777 50.1353C15.2792 50.3833 16.1001 49.9306 16.6185 50.1466C17.135 50.3607 17.3942 51.2604 17.9276 51.4426C18.4555 51.623 19.2105 51.067 19.7534 51.2116C20.2924 51.3562 20.6681 52.2146 21.2203 52.3236C21.7669 52.4325 22.4412 51.7807 23.001 51.854C23.5532 51.9254 24.0378 52.7274 24.6013 52.765C25.1573 52.8007 25.7414 52.0681 26.3049 52.0681C26.8684 52.0681 27.4544 52.8007 28.0085 52.765C28.572 52.7293 29.0566 51.9272 29.6089 51.854C30.1686 51.7807 30.8429 52.4306 31.3895 52.3236C31.9417 52.2146 32.3174 51.3562 32.8565 51.2116C33.3993 51.067 34.1544 51.623 34.6822 51.4426C35.2137 51.2623 35.4748 50.3607 35.9914 50.1466C36.5098 49.9306 37.3306 50.3833 37.8321 50.1353C38.3355 49.8874 38.4745 48.9595 38.9591 48.6796C39.4456 48.3979 40.3171 48.7397 40.7829 48.4279C41.2488 48.1161 41.2675 47.1789 41.7108 46.837C42.156 46.4952 43.0651 46.7187 43.4858 46.3505C43.9066 45.9805 43.8033 45.0489 44.1996 44.6525C44.5959 44.2562 45.5276 44.3614 45.8976 43.9388C46.2676 43.518 46.0422 42.6071 46.3841 42.1638C46.7259 41.7205 47.6613 41.7017 47.975 41.2359C48.2868 40.7701 47.9449 39.8985 48.2267 39.4121C48.5066 38.9274 49.4344 38.7885 49.6824 38.2851C49.9303 37.7836 49.4776 36.9627 49.6937 36.4443C49.9078 35.9278 50.8075 35.6686 50.9878 35.1351C51.1681 34.6073 50.6121 33.8522 50.7568 33.3094C50.9014 32.7703 51.7598 32.3947 51.8687 31.8425C51.9777 31.2959 51.3259 30.6216 51.3992 30.0618C51.4705 29.5096 52.2726 29.025 52.3101 28.4615Z" fill="#D64B4B"/>
<path d="M33.2298 32.3921C30.2969 29.6109 29.5527 26.562 26.2977 26.4676C23.0419 26.5452 22.2816 29.5899 19.334 32.3558C15.0098 36.4138 15.8253 39.9428 18.4682 40.6814C21.1111 41.4201 23.3697 38.4438 26.239 38.5074C26.2481 38.5074 26.2564 38.5074 26.2655 38.5074C26.2746 38.5074 26.283 38.5074 26.2921 38.5074C29.1621 38.4585 31.4053 41.4466 34.0516 40.7226C36.698 39.998 37.5317 36.4732 33.2291 32.3921H33.2298Z" fill="white"/>
<path d="M18.8002 30.6186C20.399 29.4621 20.2411 26.5138 18.4466 24.0337C16.6527 21.5536 13.9022 20.4803 12.3026 21.6368C10.7038 22.7933 10.8617 25.7416 12.6562 28.2217C14.4501 30.7017 17.2006 31.7751 18.8002 30.6186Z" fill="white"/>
<path d="M40.3165 21.7102C38.7239 20.5452 35.9671 21.6039 34.1606 24.0742C32.3535 26.5452 32.1802 29.4921 33.7728 30.6577C35.3654 31.8226 38.1222 30.7639 39.9286 28.2936C41.7357 25.8227 41.9097 22.8758 40.3165 21.7102Z" fill="white"/>
<path d="M22.775 24.2322C24.8246 23.873 26.0342 21.0037 25.4773 17.8241C24.9189 14.6438 22.805 12.358 20.7554 12.7172C18.7058 13.0764 17.4962 15.9457 18.0538 19.1253C18.6115 22.3048 20.7254 24.5914 22.775 24.2315V24.2322Z" fill="white"/>
<path d="M29.8315 24.2503C31.8797 24.6207 34.0055 22.3454 34.5799 19.1686C35.1543 15.9918 33.9594 13.1162 31.9119 12.7466C29.8637 12.3762 27.7379 14.6515 27.1635 17.8283C26.589 21.0051 27.784 23.8807 29.8315 24.2503Z" fill="white"/>
</svg>
